<svg width="20" height="27" viewBox="0 0 20 27" fill="none" xmlns="http://www.w3.org/2000/svg">
<path d="M5.30737 0.138791L4.13285 0.492624C3.08704 0.808007 2.15309 1.41558 1.44092 2.24383C0.728753 3.07208 0.268008 4.08654 0.112916 5.1678C-0.373604 8.55542 0.714104 12.5164 3.33672 17.0589C5.95279 21.5899 8.8326 24.509 12.0023 25.7867C13.0208 26.1972 14.1357 26.3066 15.2145 26.1019C16.2933 25.8971 17.2907 25.3869 18.0879 24.6319L18.9758 23.7899C19.5523 23.2442 19.9111 22.5078 19.9856 21.7175C20.06 20.9272 19.8449 20.1368 19.3804 19.4931L17.1591 16.4135C16.8588 15.9977 16.4359 15.6863 15.9498 15.523C15.4636 15.3597 14.9385 15.3525 14.4481 15.5027L11.0883 16.5298L11.0015 16.5461C10.6312 16.6002 9.77615 15.7992 8.71137 13.9546C7.59746 12.0249 7.36812 10.8963 7.67445 10.6047L9.383 9.01081C10.0078 8.4284 10.4346 7.66501 10.6035 6.82773C10.7724 5.99045 10.675 5.12129 10.3249 4.34219L9.24048 1.93253C8.9144 1.2074 8.33575 0.625602 7.61241 0.295579C6.88907 -0.034445 6.0704 -0.0901704 5.30901 0.138791H5.30737ZM7.74816 2.60415L8.82932 5.01382C9.03988 5.48106 9.09875 6.00253 8.99768 6.50495C8.89661 7.00738 8.64066 7.46552 8.26581 7.81499L6.55234 9.41051C5.45644 10.4491 5.8201 12.2215 7.29441 14.7737C8.68025 17.1752 9.94487 18.3612 11.3045 18.1548L11.5076 18.1122L14.928 17.0687C15.0915 17.0185 15.2666 17.0207 15.4288 17.075C15.591 17.1294 15.732 17.2331 15.8323 17.3717L18.0535 20.4514C18.2861 20.7732 18.3939 21.1686 18.3569 21.5639C18.3198 21.9592 18.1404 22.3276 17.8521 22.6006L16.9626 23.4426C16.3931 23.9816 15.6808 24.3457 14.9104 24.4918C14.14 24.6379 13.3439 24.5597 12.6166 24.2666C9.83512 23.1461 7.20595 20.4809 4.75697 16.2398C2.30144 11.9889 1.3071 8.37359 1.73465 5.40041C1.84532 4.62793 2.1744 3.90314 2.68315 3.3114C3.19189 2.71966 3.85912 2.28559 4.60626 2.0603L5.78079 1.70647C6.16158 1.59204 6.57099 1.62002 6.93268 1.78519C7.29436 1.95036 7.58362 2.24144 7.74653 2.60415H7.74816Z" fill="#735DFE"/>
</svg>
