<svg width="24" height="18" viewBox="0 0 24 18" fill="none" xmlns="http://www.w3.org/2000/svg">
<path d="M22.2857 0.202393H1.71429C1.25963 0.202393 0.823593 0.383004 0.502103 0.704495C0.180612 1.02599 0 1.46202 0 1.91668V15.631C0 16.0856 0.180612 16.5217 0.502103 16.8431C0.823593 17.1646 1.25963 17.3452 1.71429 17.3452H22.2857C22.7404 17.3452 23.1764 17.1646 23.4979 16.8431C23.8194 16.5217 24 16.0856 24 15.631V1.91668C24 1.46202 23.8194 1.02599 23.4979 0.704495C23.1764 0.383004 22.7404 0.202393 22.2857 0.202393ZM20.4 1.91668L12 7.72811L3.6 1.91668H20.4ZM1.71429 15.631V2.69668L11.5114 9.47668C11.6549 9.57621 11.8254 9.62955 12 9.62955C12.1746 9.62955 12.3451 9.57621 12.4886 9.47668L22.2857 2.69668V15.631H1.71429Z" fill="#735DFE"/>
</svg>
